<svg width="59" height="59" viewBox="0 0 59 59" fill="none" xmlns="http://www.w3.org/2000/svg">
<circle cx="26.5" cy="31.9101" r="26.46" fill="#D7EAFF"/>
<path d="M19.5615 26.4298H19.5725M19.5615 37.2936H19.5725M17.374 22.8086H34.874C36.0821 22.8086 37.0615 23.6192 37.0615 24.6192V28.2405C37.0615 29.2405 36.0821 30.0511 34.874 30.0511H17.374C16.1659 30.0511 15.1865 29.2405 15.1865 28.2405V24.6192C15.1865 23.6192 16.1659 22.8086 17.374 22.8086ZM17.374 33.6724H34.874C36.0821 33.6724 37.0615 34.483 37.0615 35.483V39.1042C37.0615 40.1042 36.0821 40.9149 34.874 40.9149H17.374C16.1659 40.9149 15.1865 40.1042 15.1865 39.1042V35.483C15.1865 34.483 16.1659 33.6724 17.374 33.6724Z" stroke="#1873DE" stroke-width="1.81062" stroke-linecap="round" stroke-linejoin="round"/>
<rect x="37" y="-0.00012207" width="22" height="22" rx="11" fill="#E6372B"/>
<path d="M50.0623 9.43414L46.9373 12.8196M46.9373 9.43414L50.0623 12.8196M53.4998 11.8039C53.4998 15.1894 51.3123 16.8821 48.7123 17.8638C48.5761 17.9138 48.4282 17.9114 48.2935 17.8571C45.6873 16.8821 43.4998 15.1894 43.4998 11.8039V7.06435C43.4998 6.88478 43.5656 6.71256 43.6828 6.58558C43.8 6.4586 43.959 6.38727 44.1248 6.38727C45.3748 6.38727 46.9373 5.57477 48.0248 4.5456C48.1572 4.42305 48.3256 4.35571 48.4998 4.35571C48.6739 4.35571 48.8423 4.42305 48.9748 4.5456C50.0685 5.58154 51.6248 6.38727 52.8748 6.38727C53.0405 6.38727 53.1995 6.4586 53.3167 6.58558C53.4339 6.71256 53.4998 6.88478 53.4998 7.06435V11.8039Z" stroke="#FFF8F7" stroke-width="0.739568" stroke-linecap="round" stroke-linejoin="round"/>
</svg>
