<svg width="54" height="54" viewBox="0 0 54 54" fill="none" xmlns="http://www.w3.org/2000/svg">
<circle cx="26.4934" cy="27.2198" r="26.46" fill="#D7EAFF"/>
<path d="M19.0615 21.4298H19.0725M19.0615 32.2936H19.0725M16.874 17.8086H34.374C35.5821 17.8086 36.5615 18.6192 36.5615 19.6192V23.2405C36.5615 24.2405 35.5821 25.0511 34.374 25.0511H16.874C15.6659 25.0511 14.6865 24.2405 14.6865 23.2405V19.6192C14.6865 18.6192 15.6659 17.8086 16.874 17.8086ZM16.874 28.6724H34.374C35.5821 28.6724 36.5615 29.483 36.5615 30.483V34.1042C36.5615 35.1042 35.5821 35.9149 34.374 35.9149H16.874C15.6659 35.9149 14.6865 35.1042 14.6865 34.1042V30.483C14.6865 29.483 15.6659 28.6724 16.874 28.6724Z" stroke="#1873DE" stroke-width="1.81062" stroke-linecap="round" stroke-linejoin="round"/>
</svg>
